<?xml version="1.0" encoding="UTF-8"?>
<svg xmlns="http://www.w3.org/2000/svg" width="16" height="13" viewBox="0 0 16 13" fill="none">
  <path d="M13.545 1.49481C12.525 1.03481 11.4317 0.694812 10.2883 0.501478C10.2781 0.499524 10.2676 0.500783 10.2582 0.505083C10.2487 0.509383 10.2409 0.516511 10.2357 0.525479C10.0957 0.771479 9.93965 1.09215 9.83032 1.34548C8.61772 1.1643 7.38492 1.1643 6.17232 1.34548C6.05054 1.06472 5.91322 0.790961 5.76099 0.525479C5.75583 0.5164 5.74802 0.509112 5.73861 0.504585C5.7292 0.500059 5.71863 0.49851 5.70832 0.500145C4.56565 0.693478 3.47232 1.03348 2.45165 1.49415C2.44287 1.49783 2.43543 1.50411 2.43032 1.51215C0.355654 4.56215 -0.213013 7.53681 0.0663204 10.4741C0.0670977 10.4813 0.0693308 10.4883 0.0728837 10.4946C0.0764366 10.5009 0.0812351 10.5064 0.0869871 10.5108C1.29792 11.3924 2.64855 12.064 4.08232 12.4975C4.09232 12.5006 4.10301 12.5005 4.113 12.4975C4.12299 12.4944 4.13181 12.4883 4.13832 12.4801C4.44685 12.0675 4.72025 11.6298 4.95565 11.1715C4.95892 11.1652 4.9608 11.1583 4.96118 11.1513C4.96155 11.1442 4.9604 11.1372 4.95781 11.1306C4.95521 11.124 4.95124 11.1181 4.94615 11.1132C4.94107 11.1083 4.93498 11.1045 4.92832 11.1021C4.49766 10.94 4.08038 10.7443 3.68032 10.5168C3.67313 10.5127 3.66707 10.5069 3.66269 10.4999C3.65831 10.4928 3.65574 10.4848 3.65521 10.4766C3.65468 10.4683 3.65621 10.4601 3.65966 10.4525C3.66311 10.445 3.66838 10.4385 3.67499 10.4335C3.75899 10.3715 3.84299 10.3068 3.92299 10.2421C3.93019 10.2363 3.93886 10.2326 3.94804 10.2315C3.95722 10.2303 3.96655 10.2317 3.97499 10.2355C6.59299 11.4115 9.42832 11.4115 12.0157 10.2355C12.0241 10.2314 12.0335 10.2299 12.0428 10.2309C12.0522 10.232 12.061 10.2356 12.0683 10.2415C12.1483 10.3068 12.2317 10.3715 12.3163 10.4335C12.323 10.4384 12.3283 10.4448 12.3319 10.4523C12.3355 10.4597 12.3371 10.468 12.3367 10.4762C12.3363 10.4845 12.3339 10.4925 12.3296 10.4996C12.3254 10.5067 12.3194 10.5126 12.3123 10.5168C11.9137 10.7461 11.499 10.9401 11.0637 11.1015C11.057 11.1039 11.0509 11.1077 11.0458 11.1127C11.0407 11.1177 11.0367 11.1237 11.0341 11.1303C11.0316 11.1369 11.0304 11.144 11.0308 11.1511C11.0312 11.1582 11.033 11.1652 11.0363 11.1715C11.2763 11.6295 11.551 12.0655 11.853 12.4795C11.8593 12.488 11.868 12.4943 11.878 12.4977C11.8881 12.501 11.8989 12.5012 11.909 12.4981C13.3452 12.0659 14.6981 11.394 15.9103 10.5108C15.9162 10.5067 15.9212 10.5013 15.9249 10.4951C15.9286 10.4889 15.9309 10.482 15.9317 10.4748C16.265 7.07881 15.373 4.12815 13.5657 1.51348C13.5612 1.50498 13.5539 1.49836 13.545 1.49481ZM5.34699 8.68548C4.55899 8.68548 3.90899 7.97281 3.90899 7.09881C3.90899 6.22414 4.54632 5.51214 5.34699 5.51214C6.15365 5.51214 6.79765 6.23014 6.78499 7.09881C6.78499 7.97348 6.14765 8.68548 5.34699 8.68548V8.68548ZM10.6637 8.68548C9.87499 8.68548 9.22565 7.97281 9.22565 7.09881C9.22565 6.22414 9.86232 5.51214 10.6637 5.51214C11.4703 5.51214 12.1143 6.23014 12.1017 7.09881C12.1017 7.97348 11.471 8.68548 10.6637 8.68548V8.68548Z" fill="#FEBE77"></path>
</svg>
