<?xml version="1.0" encoding="UTF-8"?>
<svg xmlns="http://www.w3.org/2000/svg" width="350" height="361" viewBox="0 0 350 361" fill="none">
  <g clip-path="url(#clip0_160_3308)">
    <path d="M174.943 288.183C237.362 288.183 287.962 237.583 287.962 175.164C287.962 112.745 237.362 62.1445 174.943 62.1445C112.524 62.1445 61.9238 112.745 61.9238 175.164C61.9238 237.583 112.524 288.183 174.943 288.183Z" stroke="#FEBE77" stroke-miterlimit="10"></path>
    <path d="M61.3553 231.844C61.1277 232.527 60.7862 232.982 60.1033 233.324C59.4204 233.665 58.8514 233.665 58.1685 233.437C57.4856 233.21 56.8027 232.641 56.2336 231.958C55.8921 231.503 55.6645 230.934 55.4369 230.364C55.0954 229.34 54.9816 228.316 55.2092 227.291C55.3231 226.95 55.4369 226.608 55.5507 226.381L57.1441 227.064C57.0303 227.291 56.9165 227.519 56.8027 227.974C56.6889 228.543 56.8027 229.112 57.0303 229.795C57.4856 230.934 57.9408 231.616 58.6237 231.73C58.8514 231.844 59.079 231.73 59.3066 231.73C59.5343 231.616 59.6481 231.503 59.7619 231.275C59.8757 230.706 59.8757 230.023 59.4204 228.885C59.079 227.974 58.9652 227.064 58.9652 226.381C58.9652 225.129 59.5343 224.218 60.6724 223.877C61.3553 223.649 62.0382 223.649 62.7211 223.991C63.2902 224.218 63.7454 224.674 64.2007 225.357C64.5422 225.926 64.8836 226.381 65.1112 226.95C65.4527 227.974 65.5665 228.999 65.3389 230.023C65.3389 230.137 65.2251 230.364 65.2251 230.478L63.6316 229.909C63.6316 229.909 63.6316 229.909 63.6316 229.795C63.7454 229.454 63.7454 228.999 63.7454 228.543C63.6316 227.519 63.2902 226.722 62.6073 226.039C62.3797 225.812 62.152 225.698 62.0382 225.584C61.8106 225.47 61.5829 225.47 61.3553 225.584C61.1277 225.698 60.9 225.926 60.9 226.153C60.7862 226.381 60.7862 226.608 60.9 226.95C60.9 227.291 61.1277 227.974 61.4691 228.885C61.5829 230.023 61.5829 231.047 61.3553 231.844Z" fill="#FEBE77"></path>
    <path d="M76.0372 248.575C75.4682 247.778 74.6714 247.323 73.7609 247.209C72.8504 247.095 71.9399 247.323 71.257 247.892C70.4603 248.461 70.005 249.144 69.8912 250.168C69.7774 251.079 70.005 251.989 70.5741 252.672C71.1431 253.469 71.826 253.924 72.8504 254.038L72.5089 255.632C71.1431 255.404 70.005 254.721 69.2083 253.583C68.4116 252.445 68.0701 251.193 68.2977 249.713C68.5254 248.347 69.2083 247.209 70.3464 246.299C71.4846 245.502 72.7366 245.16 74.2162 245.388C75.6958 245.616 76.7201 246.299 77.6307 247.437C78.4274 248.575 78.7688 249.827 78.5412 251.307L76.8339 251.079C76.8339 250.168 76.6063 249.372 76.0372 248.575Z" fill="#FEBE77"></path>
    <path d="M89.3544 263.826L88.5577 263.143L90.265 262.347L93.6794 265.42C94.4761 266.103 94.8176 266.899 94.8176 267.924C94.8176 268.948 94.59 269.745 93.9071 270.541C93.338 271.111 92.7689 271.452 91.9722 271.68C91.2893 271.793 90.4926 271.793 89.8097 271.566L89.2406 279.305L87.761 276.801L88.2163 270.428L86.8505 269.176L84.8018 271.338L83.5498 270.2L89.3544 263.826ZM88.1024 267.81L90.0373 269.517C90.3788 269.859 90.834 270.086 91.4031 269.972C91.9722 269.859 92.4275 269.745 92.7689 269.403C93.1104 269.062 93.338 268.493 93.2242 268.037C93.2242 267.468 92.9965 267.013 92.6551 266.672L90.7202 264.964L88.1024 267.81Z" fill="#FEBE77"></path>
    <path d="M112.8 279.533C114.052 280.216 114.849 281.354 115.19 282.72C115.532 284.086 115.304 285.338 114.621 286.59C113.938 287.842 112.8 288.638 111.434 288.98C110.069 289.321 108.817 289.094 107.565 288.411C106.313 287.728 105.516 286.59 105.174 285.224C104.833 283.858 105.061 282.492 105.744 281.354C106.426 280.102 107.565 279.305 108.93 278.964C110.296 278.509 111.548 278.736 112.8 279.533ZM108.361 286.817C108.817 287.045 109.158 287.159 109.613 287.273L108.93 280.671C108.247 281.013 107.678 281.468 107.223 282.151C106.768 282.948 106.654 283.858 106.882 284.769C107.109 285.679 107.565 286.362 108.361 286.817ZM111.321 287.045C112.003 286.703 112.572 286.248 113.028 285.565C113.483 284.769 113.597 283.858 113.369 282.948C113.142 282.037 112.572 281.354 111.776 280.899C111.321 280.671 110.979 280.557 110.524 280.444L111.321 287.045Z" fill="#FEBE77"></path>
    <path d="M132.604 288.98L129.759 297.061L135.222 298.996L133.97 300.361L127.482 298.085L130.897 288.411L132.604 288.98Z" fill="#FEBE77"></path>
    <path d="M154.571 294.898L153.319 303.434L159.123 304.345L158.213 305.938L151.384 304.914L152.863 294.784L154.571 294.898Z" fill="#FEBE77"></path>
    <path d="M201.349 293.76L201.69 295.467L198.503 296.036L200.097 304.458L198.389 304.8L196.796 296.378L193.609 296.947L193.268 295.239L201.349 293.76Z" fill="#FEBE77"></path>
    <path d="M219.901 288.069C221.267 287.5 222.519 287.614 223.885 288.183C225.137 288.752 226.161 289.662 226.616 291.028C227.185 292.394 227.072 293.646 226.503 295.012C225.933 296.264 225.023 297.174 223.657 297.743C222.291 298.312 221.039 298.199 219.674 297.743C218.422 297.174 217.511 296.264 216.942 294.898C216.373 293.532 216.487 292.28 216.942 291.028C217.625 289.435 218.649 288.524 219.901 288.069ZM223.088 295.922C223.543 295.695 223.885 295.467 224.226 295.126L218.535 291.711C218.308 292.508 218.308 293.191 218.649 293.987C218.991 294.898 219.56 295.467 220.47 295.808C221.381 296.264 222.177 296.378 223.088 295.922ZM225.137 293.76C225.364 292.963 225.364 292.28 225.023 291.483C224.681 290.573 224.112 290.004 223.202 289.662C222.291 289.321 221.495 289.321 220.584 289.662C220.129 289.89 219.787 290.118 219.446 290.459L225.137 293.76Z" fill="#FEBE77"></path>
    <path d="M258.599 263.257L259.737 264.509L257.347 266.672L263.037 273.046L261.786 274.184L256.095 267.81L253.705 269.972L252.566 268.72L258.599 263.257Z" fill="#FEBE77"></path>
    <path d="M271.573 248.689C272.484 247.551 273.622 246.868 274.988 246.754C276.353 246.526 277.605 246.868 278.743 247.778C279.882 248.689 280.564 249.827 280.678 251.193C280.906 252.558 280.564 253.81 279.654 254.949C278.743 256.087 277.719 256.77 276.239 256.883C274.874 257.111 273.508 256.77 272.484 255.859C271.459 254.949 270.663 253.924 270.549 252.445C270.435 251.079 270.776 249.827 271.573 248.689ZM278.971 250.965C278.743 250.168 278.402 249.599 277.719 249.144C276.922 248.575 276.126 248.347 275.215 248.461C274.305 248.575 273.508 249.03 272.939 249.827C272.711 250.168 272.484 250.624 272.37 251.079L278.971 250.965ZM278.402 253.924C278.63 253.583 278.857 253.128 278.971 252.672H272.37C272.597 253.469 272.939 254.038 273.622 254.493C274.418 255.062 275.215 255.29 276.126 255.176C277.15 255.062 277.833 254.721 278.402 253.924Z" fill="#FEBE77"></path>
    <path d="M284.89 226.836C285.345 225.926 286.028 225.357 286.939 225.015C287.849 224.674 288.76 224.788 289.67 225.129C290.581 225.584 291.15 226.267 291.491 227.178C291.833 228.088 291.719 228.999 291.378 229.909L290.239 232.186L292.971 233.438L292.174 235.031L284.435 231.275L283.98 232.186L282.728 230.82L284.89 226.836ZM289.898 229.226C290.126 228.771 290.126 228.202 290.012 227.747C289.784 227.292 289.556 226.836 288.987 226.609C288.532 226.381 287.963 226.381 287.508 226.495C287.053 226.609 286.597 226.95 286.37 227.519L285.231 229.796L288.76 231.503L289.898 229.226Z" fill="#FEBE77"></path>
    <path d="M35.4053 183.358C39.5026 254.038 96.0692 310.491 166.635 314.588" stroke="#FEBE77" stroke-miterlimit="10"></path>
    <path d="M314.482 166.855C310.384 96.2894 253.818 39.7229 183.252 35.6255" stroke="#FEBE77" stroke-miterlimit="10"></path>
    <path d="M12.6416 166.855H35.4048C39.616 96.2892 96.0687 39.7226 166.748 35.6253V1.48047" stroke="#FEBE77" stroke-miterlimit="10"></path>
    <path d="M337.245 183.358H314.482C310.384 254.038 253.818 310.491 183.252 314.588V348.733" stroke="#FEBE77" stroke-miterlimit="10"></path>
    <path fill-rule="evenodd" clip-rule="evenodd" d="M163.675 91.8506L220.356 193.83H106.995L163.675 91.8506ZM163.675 112.11L203.511 183.928H123.726L163.675 112.11Z" fill="#FEBE77"></path>
    <path fill-rule="evenodd" clip-rule="evenodd" d="M195.43 111.313L252.11 213.292H138.863L195.43 111.313ZM195.43 131.572L235.265 203.39H155.48L195.43 131.572Z" fill="#FEBE77"></path>
    <path fill-rule="evenodd" clip-rule="evenodd" d="M163.675 131.458L220.356 233.438H106.995L163.675 131.458ZM163.675 151.832L203.511 223.649H123.726L163.675 151.832Z" fill="#FEBE77"></path>
    <path d="M342.936 189.049C346.079 189.049 348.627 186.501 348.627 183.358C348.627 180.215 346.079 177.667 342.936 177.667C339.793 177.667 337.245 180.215 337.245 183.358C337.245 186.501 339.793 189.049 342.936 189.049Z" stroke="#FEBE77" stroke-miterlimit="10"></path>
    <path d="M331.668 177.781V189.049" stroke="#FEBE77" stroke-miterlimit="10"></path>
    <path d="M326.091 177.781V189.049" stroke="#FEBE77" stroke-miterlimit="10"></path>
    <path d="M7.06482 172.546C10.2078 172.546 12.7556 169.998 12.7556 166.855C12.7556 163.712 10.2078 161.165 7.06482 161.165C3.92188 161.165 1.37402 163.712 1.37402 166.855C1.37402 169.998 3.92188 172.546 7.06482 172.546Z" stroke="#FEBE77" stroke-miterlimit="10"></path>
    <path d="M18.333 172.546V161.278" stroke="#FEBE77" stroke-miterlimit="10"></path>
    <path d="M23.9092 172.546V161.278" stroke="#FEBE77" stroke-miterlimit="10"></path>
    <path d="M183.252 360.228C186.395 360.228 188.943 357.68 188.943 354.537C188.943 351.395 186.395 348.847 183.252 348.847C180.109 348.847 177.562 351.395 177.562 354.537C177.562 357.68 180.109 360.228 183.252 360.228Z" stroke="#FEBE77" stroke-miterlimit="10"></path>
    <path d="M177.562 338.717L188.943 343.27" stroke="#FEBE77" stroke-miterlimit="10"></path>
    <path d="M177.562 333.026L188.943 337.579" stroke="#FEBE77" stroke-miterlimit="10"></path>
    <path d="M159.578 8.65088L166.749 1.48047L173.919 8.65088" stroke="#FEBE77" stroke-miterlimit="10"></path>
    <path d="M159.578 17.4145L166.749 10.2441L173.919 17.4145" stroke="#FEBE77" stroke-miterlimit="10"></path>
    <path d="M61.696 119.166C62.3789 118.938 62.948 118.938 63.6309 119.166C64.3138 119.394 64.769 119.963 64.9967 120.532C65.3381 121.215 65.3381 122.011 65.1105 123.036C64.9967 123.605 64.769 124.174 64.4276 124.629C63.8585 125.653 63.1756 126.336 62.2651 126.792C61.9236 126.905 61.5822 127.019 61.3546 127.133L60.8993 125.426C61.1269 125.426 61.4684 125.312 61.8098 125.084C62.2651 124.743 62.7204 124.288 63.0618 123.719C63.6309 122.694 63.8585 121.897 63.5171 121.215C63.4033 120.987 63.2894 120.873 63.0618 120.759C62.8342 120.645 62.6065 120.645 62.3789 120.759C61.9236 120.987 61.3546 121.556 60.7855 122.467C60.3302 123.377 59.7611 124.06 59.1921 124.515C58.1677 125.312 57.1434 125.426 56.2328 124.857C55.55 124.515 55.2085 123.946 54.9809 123.263C54.8671 122.694 54.8671 122.011 54.9809 121.215C55.0947 120.532 55.3223 119.963 55.6638 119.507C56.2328 118.483 56.9157 117.8 57.8263 117.345C57.9401 117.231 58.1677 117.231 58.2815 117.117L58.8506 118.711C58.8506 118.711 58.8506 118.711 58.7368 118.711C58.3954 118.824 58.0539 119.166 57.7125 119.507C57.0296 120.19 56.6881 121.101 56.5743 122.011C56.5743 122.353 56.5743 122.58 56.5743 122.694C56.6881 122.922 56.8019 123.149 57.0296 123.263C57.2572 123.377 57.4848 123.377 57.8263 123.263C58.0539 123.149 58.2815 123.036 58.5092 122.808C58.7368 122.58 59.0782 122.011 59.6473 121.215C60.2164 120.19 60.8993 119.507 61.696 119.166Z" fill="#FEBE77"></path>
    <path d="M70.2323 98.1101C69.6632 98.9068 69.4356 99.7035 69.6632 100.614C69.777 101.525 70.2323 102.321 71.029 102.89C71.8257 103.459 72.6224 103.687 73.5329 103.459C74.4435 103.346 75.2402 102.89 75.8093 102.094C76.3783 101.297 76.606 100.5 76.3783 99.5897L78.0856 99.3621C78.3132 100.728 77.9718 101.98 77.175 103.232C76.3783 104.37 75.2402 105.053 73.8744 105.281C72.5086 105.508 71.2566 105.167 70.0046 104.37C68.8665 103.573 68.1836 102.435 67.9559 101.069C67.7283 99.7035 68.0698 98.4515 68.8665 97.1996C69.6632 96.0614 70.8013 95.3785 72.1671 95.1509L72.3948 96.8581C71.5981 96.8581 70.8013 97.3134 70.2323 98.1101Z" fill="#FEBE77"></path>
    <path d="M84.3458 81.8347L83.5491 82.5175L82.8662 80.8103L86.2807 77.7373C86.9636 77.0544 87.8741 76.7129 88.8985 76.8267C89.9228 76.8267 90.7195 77.282 91.4024 77.9649C91.9715 78.534 92.1991 79.2169 92.3129 79.8998C92.4268 80.5827 92.3129 81.3794 91.9715 81.9485L99.5972 83.2004L96.9794 84.4524L90.7195 83.4281L89.3537 84.68L91.4024 86.8425L90.1504 87.9807L84.3458 81.8347ZM88.2156 83.5419L90.1504 81.8347C90.4919 81.4932 90.7195 81.0379 90.7195 80.4689C90.7195 79.8998 90.6057 79.4445 90.2643 79.1031C89.9228 78.7616 89.4675 78.534 88.8985 78.534C88.3294 78.534 87.8741 78.6478 87.5327 78.9892L85.5978 80.6965L88.2156 83.5419Z" fill="#FEBE77"></path>
    <path d="M106.995 62.2582C108.247 61.5753 109.499 61.3477 110.865 61.6891C112.23 62.0305 113.255 62.8273 114.052 63.9654C114.734 65.2174 114.962 66.4694 114.621 67.8352C114.279 69.201 113.482 70.2253 112.344 71.022C111.092 71.7049 109.84 71.9325 108.475 71.5911C107.109 71.2496 106.084 70.4529 105.288 69.201C104.491 67.949 104.377 66.697 104.719 65.3312C105.06 64.0792 105.857 63.0549 106.995 62.2582ZM111.434 69.6562C111.889 69.4286 112.117 69.0871 112.458 68.7457L106.312 66.3556C106.198 67.1523 106.426 67.8352 106.767 68.5181C107.223 69.3148 107.905 69.8839 108.93 70.1115C109.84 70.2253 110.637 70.1115 111.434 69.6562ZM113.141 67.0385C113.255 66.2417 113.027 65.5588 112.686 64.8759C112.23 64.0792 111.548 63.5102 110.523 63.2825C109.613 63.0549 108.702 63.1687 107.905 63.624C107.45 63.8516 107.223 64.1931 106.881 64.5345L113.141 67.0385Z" fill="#FEBE77"></path>
    <path d="M128.734 51.7871L131.579 59.868L137.042 57.9332L136.928 59.7542L130.441 62.0306L127.026 52.3562L128.734 51.7871Z" fill="#FEBE77"></path>
    <path d="M152.521 45.2993L153.887 53.7217L159.692 52.8112L159.236 54.6322L152.521 55.6566L150.928 45.5269L152.521 45.2993Z" fill="#FEBE77"></path>
    <path d="M202.714 46.3238L202.373 48.0311L199.186 47.462L197.706 55.8844L195.999 55.5429L197.479 47.1206L194.292 46.5515L194.633 44.8442L202.714 46.3238Z" fill="#FEBE77"></path>
    <path d="M223.315 52.584C224.68 53.153 225.591 54.0636 226.16 55.3155C226.729 56.5675 226.729 57.9333 226.274 59.2991C225.705 60.6649 224.794 61.5754 223.542 62.1445C222.29 62.7136 220.924 62.7136 219.672 62.2583C218.307 61.6892 217.396 60.7787 216.827 59.5267C216.258 58.2748 216.258 56.909 216.713 55.5432C217.282 54.1774 218.193 53.2669 219.445 52.6978C220.583 52.0149 221.949 52.0149 223.315 52.584ZM220.128 60.5511C220.583 60.7787 221.038 60.7787 221.493 60.7787L219.672 54.405C218.989 54.8603 218.534 55.3155 218.193 56.1123C217.851 57.0228 217.851 57.8195 218.193 58.73C218.648 59.5267 219.217 60.2096 220.128 60.5511ZM223.087 60.3235C223.77 59.8682 224.225 59.4129 224.566 58.6162C224.908 57.7057 224.908 56.909 224.566 55.9984C224.225 55.0879 223.542 54.5188 222.632 54.1774C222.176 53.9498 221.721 53.9498 221.266 53.9498L223.087 60.3235Z" fill="#FEBE77"></path>
    <path d="M265.085 78.9891L263.947 80.241L261.557 78.0785L255.866 84.4522L254.614 83.3141L260.305 76.9404L257.915 74.7779L259.053 73.5259L265.085 78.9891Z" fill="#FEBE77"></path>
    <path d="M279.54 94.9231C280.45 96.0612 280.792 97.3132 280.564 98.679C280.337 100.045 279.767 101.183 278.629 102.093C277.491 103.004 276.239 103.345 274.873 103.118C273.508 102.89 272.369 102.321 271.459 101.183C270.548 100.045 270.207 98.7928 270.434 97.427C270.662 96.0612 271.231 94.9231 272.369 94.0126C273.508 93.102 274.76 92.7606 276.125 92.9882C277.491 93.2158 278.629 93.7849 279.54 94.9231ZM272.711 100.159C272.938 100.5 273.394 100.842 273.735 101.069L275.442 94.6955C274.646 94.6955 273.963 94.9231 273.28 95.3783C272.483 95.9474 272.142 96.7441 272.028 97.6547C271.914 98.5652 272.142 99.4757 272.711 100.159ZM275.442 101.524C276.239 101.524 276.922 101.297 277.605 100.842C278.402 100.272 278.743 99.4757 278.857 98.5652C278.971 97.6547 278.743 96.7441 278.174 96.0612C277.833 95.7198 277.491 95.3783 277.15 95.1507L275.442 101.524Z" fill="#FEBE77"></path>
    <path d="M293.995 118.483C294.45 119.394 294.45 120.304 294.109 121.215C293.767 122.125 293.198 122.808 292.288 123.263C291.377 123.719 290.466 123.719 289.556 123.377C288.645 123.036 287.963 122.467 287.507 121.556L286.369 119.28L283.638 120.532L282.841 118.938L290.58 115.183L290.125 114.272L291.946 114.158L293.995 118.483ZM288.987 120.987C289.215 121.442 289.556 121.784 290.125 122.012C290.58 122.239 291.149 122.125 291.605 121.898C292.06 121.67 292.401 121.329 292.629 120.76C292.857 120.19 292.743 119.735 292.515 119.28L291.377 117.004L287.963 118.711L288.987 120.987Z" fill="#FEBE77"></path>
  </g>
  <defs>
    <clipPath id="clip0_160_3308">
      <rect width="348.391" height="360" fill="white" transform="translate(0.804688 0.683594)"></rect>
    </clipPath>
  </defs>
</svg>
