<?xml version="1.0" encoding="UTF-8"?>
<svg xmlns="http://www.w3.org/2000/svg" width="16" height="13" viewBox="0 0 16 13" fill="none">
  <path d="M15.7623 1.79122C15.2057 2.03789 14.6077 2.20456 13.979 2.27989C14.6277 1.89175 15.113 1.28087 15.3443 0.561222C14.7349 0.923215 14.0679 1.17802 13.3723 1.31456C12.9046 0.815132 12.285 0.484106 11.6099 0.372871C10.9347 0.261636 10.2417 0.376416 9.63849 0.69939C9.03525 1.02236 8.55552 1.53546 8.27377 2.15902C7.99202 2.78259 7.92402 3.48172 8.08033 4.14789C6.84546 4.08589 5.63742 3.76492 4.53462 3.20583C3.43181 2.64673 2.45889 1.862 1.679 0.902555C1.41233 1.36256 1.259 1.89589 1.259 2.46389C1.2587 2.97522 1.38462 3.47872 1.62559 3.92971C1.86655 4.3807 2.21511 4.76525 2.64033 5.04922C2.14718 5.03353 1.66492 4.90028 1.23367 4.66056V4.70055C1.23362 5.41772 1.48169 6.11281 1.93579 6.66789C2.38989 7.22297 3.02205 7.60384 3.725 7.74589C3.26752 7.8697 2.78789 7.88794 2.32233 7.79922C2.52066 8.4163 2.907 8.95591 3.42724 9.34251C3.94749 9.72911 4.57561 9.94334 5.22367 9.95522C4.12356 10.8188 2.76492 11.2873 1.36633 11.2852C1.11859 11.2853 0.871051 11.2708 0.625 11.2419C2.04465 12.1547 3.69723 12.6391 5.385 12.6372C11.0983 12.6372 14.2217 7.90522 14.2217 3.80122C14.2217 3.66789 14.2183 3.53322 14.2123 3.39989C14.8199 2.96054 15.3443 2.41649 15.761 1.79322L15.7623 1.79122V1.79122Z" fill="#FEBE77"></path>
</svg>
